<svg width="134" height="53" viewBox="0 0 134 53" fill="none" xmlns="http://www.w3.org/2000/svg">
<path d="M15.9043 42.8094L13.5094 49.0961C13.5094 49.0961 11.1255 49.2865 9.61764 49.0961C8.10978 48.9058 7.30127 49.0209 5.84 48.4974C5.0018 48.1971 4.3076 47.7938 3.74443 47.4496C2.36853 46.6087 2.39041 46.436 1.3495 45.2044C0.866278 44.6326 0.619597 44.2512 0.337289 43.5579C-0.283492 42.0333 0.0100343 40.3877 0.750765 38.9177C1.99709 36.4443 3.72782 35.2257 6.02524 33.6788C9.58208 31.2838 10.5198 30.7382 13.5094 29.0386C17.2138 26.9326 19.3935 25.9352 23.2388 24.099C28.0806 21.787 30.8526 20.6078 35.8122 18.5607L35.9908 18.487C42.9754 15.6041 46.9621 13.9586 54.2233 11.6753C60.6821 9.64433 70.9878 7.25635 70.9878 7.25635L69.6407 7.63385L58.5641 11.6753C58.5641 11.6753 51.646 14.0391 47.3378 15.8664C42.7406 17.8164 35.8122 21.4047 35.8122 21.4047L50.7806 49.0961H40.4524L37.1594 42.8094H15.9043Z" fill="#1A2550"/>
<path d="M31.3217 11.6753L27.879 4.19113L19.9458 17.513L31.3217 11.6753Z" fill="#1A2550"/>
<path d="M41.3505 7.63385L40.4524 5.83765L50.7427 5.23892L41.3505 7.63385Z" fill="#1A2550"/>
<path d="M62.1565 50.593L46.1404 18.5607L55.1214 14.669L62.1565 29.0386L72.4846 8.83132L84.4593 5.83765L62.1565 50.593Z" fill="#1A2550"/>
<path d="M27.5951 27.3042L21.9499 36.2852H32.7271L27.5951 27.3042Z" fill="white"/>
<path d="M76.4874 42.3071L76.4565 31.968C76.4527 30.7066 76.1115 29.5814 75.0528 29.5846L74.8276 29.5852L74.8266 29.2699C76.3133 29.2654 77.7999 29.261 79.2866 29.2565L82.6972 39.9008L86.1793 29.2359C87.666 29.2315 89.1301 29.2271 90.6167 29.2227L90.6177 29.538L90.3699 29.5388C89.5365 29.5413 89.1556 30.2407 89.0233 31.1872L89.0576 42.675C89.0605 43.6436 89.5817 44.6782 90.4151 44.6757L90.6629 44.6749L90.6639 44.9903C88.6366 44.9963 86.6093 45.0024 84.5821 45.0085L84.5811 44.6931L84.8289 44.6924C85.8876 44.6892 86.222 43.5394 86.2183 42.278L86.1821 30.182L81.4278 44.7701L81.2687 44.275L76.7667 30.2552L76.8028 42.3061C76.8065 43.5675 77.1703 44.6927 78.2065 44.6896L78.4542 44.6889L78.4552 45.0042C77.2613 45.0078 76.045 45.0114 74.8737 45.0149L74.8727 44.6996L75.098 44.6989C76.1567 44.7183 76.4912 43.5685 76.4874 42.3071ZM99.2272 29.197L104.718 42.3579C105.24 43.6403 105.873 44.6295 106.909 44.6264L107.157 44.6256L107.158 44.941C104.973 44.9475 102.788 44.9541 100.603 44.9606L100.602 44.6452L100.85 44.6445C101.886 44.6414 102.356 43.5363 101.879 42.3664L99.7467 37.237L96.0301 37.2481L93.906 42.5479C93.5039 43.6528 93.7772 44.6656 94.7908 44.6626L95.0161 44.6619L95.017 44.9773L91.0075 44.9893L91.0066 44.6739L91.2319 44.6732C92.4032 44.6697 93.2777 43.3381 93.6578 42.3909L98.9118 29.1979L99.2272 29.197ZM96.1643 36.9323L99.6106 36.922L97.841 32.67L96.1643 36.9323ZM111.905 35.6238L111.925 42.2012C111.929 43.4626 112.27 44.6104 113.329 44.6072L113.576 44.6065L113.577 44.9218C111.55 44.9279 109.523 44.9339 107.518 44.9399L107.517 44.6246L107.742 44.6239C108.576 44.6214 109.091 43.7414 109.087 42.4349L109.054 31.1273C108.916 30.1816 108.531 29.4845 107.697 29.487L107.472 29.4877L107.471 29.1723C109.814 29.1653 112.179 29.1583 114.544 29.1512C122 29.1289 122.378 34.9618 115.667 35.5676C116.996 35.6312 117.74 35.9893 118.217 37.2043L120.169 42.2892C120.669 43.5716 121.37 44.5832 122.429 44.58L122.677 44.5793L122.678 44.8946C121.867 44.897 121.056 44.8995 120.245 44.9019C118.555 44.9069 118.125 44.0748 117.649 43.0626L114.743 35.6154C114.698 35.6155 111.973 35.6236 111.905 35.6238ZM111.904 35.3085L113.932 35.3024C119.383 35.2861 119.343 29.4522 113.914 29.4684L111.887 29.4745L111.904 35.3085ZM129.096 29.4231L129.134 42.1498C129.138 43.4112 129.48 44.5589 130.538 44.5333L130.763 44.5326L130.764 44.8479L124.705 44.866L124.704 44.5507L124.952 44.5499C125.785 44.5475 126.166 43.848 126.299 42.9241L126.258 29.4315L126.078 29.4321C123.848 29.4387 122.861 30.9509 122.8 32.9783L122.759 34.4201L122.444 34.421L122.609 29.2622L122.608 29.1271L132.722 29.0969L132.722 29.232L132.941 34.3897L132.625 34.3906L132.576 32.9491C132.48 30.9221 131.484 29.4159 129.254 29.4226L129.096 29.4231Z" fill="#62CDB9"/>
<path d="M101.94 18.8483L100.805 14.9688C99.6073 10.8727 95.8155 8.08549 91.5485 8.16451C95.0717 8.40472 98.0534 10.8561 98.9704 14.2664L100.141 18.6216C100.362 19.441 100.725 20.2153 101.214 20.9087L101.372 21.133C101.692 21.586 102.079 21.9876 102.52 22.3236C103.018 22.7029 103.577 22.9934 104.174 23.1823L104.401 23.2542C105.066 23.4646 105.759 23.5716 106.456 23.5716H114.692C115.772 23.5716 117.231 23.4971 117.648 24.4935C117.816 24.896 117.261 25.1703 116.849 25.3135C116.584 25.4056 116.302 25.4315 116.021 25.4338L99.9614 25.5643C99.09 25.5714 98.8531 26.7671 99.6559 27.1059C99.7565 27.1484 99.8648 27.1699 99.974 27.1691L116.117 27.0461C116.945 27.0398 117.783 26.8557 118.451 26.3673C118.925 26.0212 119.166 25.6571 119.388 25.1627C119.61 24.6699 119.463 24.1783 119.254 23.6904L119.227 23.6269C118.961 23.0154 118.42 22.5638 117.857 22.2066C117.293 21.8494 116.64 21.6598 115.973 21.6598H105.089C104.429 21.6598 103.788 21.442 103.264 21.0403C102.834 20.7098 102.501 20.2684 102.301 19.7634L101.94 18.8483Z" fill="#1A2550"/>
<path d="M102.713 9.23528H123.07L123.051 9.27757L119.185 18.2236C118.994 18.6648 118.709 19.0589 118.35 19.3783C117.747 19.9144 116.968 20.2105 116.161 20.2105H106.381C105.681 20.2105 105.005 19.9534 104.481 19.4879C104.046 19.1009 103.739 18.5901 103.602 18.0239L102.667 14.163C102.565 13.74 102.885 13.3327 103.32 13.3327C103.613 13.3327 103.873 13.5226 103.961 13.8021L105.103 17.4107C105.227 17.8052 105.465 18.1547 105.786 18.4161C106.164 18.7249 106.638 18.8934 107.127 18.8934H115.278C116.218 18.8934 117.134 18.5492 117.797 17.8821C117.851 17.8272 117.903 17.7737 117.952 17.7228C120.498 15.0719 122.823 9.80195 123.051 9.27757L123.07 9.23528L102.755 10.5338C102.571 10.5456 102.391 10.4787 102.259 10.3499C101.842 9.94257 102.131 9.23528 102.713 9.23528Z" fill="#62CDB9"/>
<path d="M123.07 9.23528H102.713C102.131 9.23528 101.842 9.94257 102.259 10.3499C102.391 10.4787 102.571 10.5456 102.755 10.5338L123.07 9.23528ZM123.07 9.23528L119.185 18.2236C118.994 18.6648 118.709 19.0589 118.35 19.3783C117.747 19.9144 116.968 20.2105 116.161 20.2105H106.381C105.681 20.2105 105.005 19.9534 104.481 19.4879C104.046 19.1009 103.739 18.5901 103.602 18.0239L102.667 14.163C102.565 13.74 102.885 13.3327 103.32 13.3327C103.613 13.3327 103.873 13.5226 103.961 13.8021L105.103 17.4107C105.227 17.8052 105.465 18.1547 105.786 18.4161C106.164 18.7249 106.638 18.8934 107.127 18.8934H115.278C116.218 18.8934 117.134 18.5492 117.797 17.8821C117.851 17.8272 117.903 17.7737 117.952 17.7228C120.633 14.9312 123.07 9.23528 123.07 9.23528Z" stroke="#62CDB9" stroke-width="0.267688"/>
<path d="M110.288 12.0459H119.389" stroke="#62CDB9" stroke-width="0.803063"/>
<path d="M109.484 13.6521H118.585" stroke="#62CDB9" stroke-width="0.803063"/>
<path d="M108.146 15.2581H117.247" stroke="#62CDB9" stroke-width="0.803063"/>
<path d="M99.1418 9.0518C98.7832 9.409 98.1342 9.23046 97.7113 8.77644C97.1498 8.17362 96.919 7.00781 97.064 5.95803L99.1418 9.0518ZM99.5587 8.63992C99.3172 8.5454 98.3441 8.07819 98.6728 6.31011C98.0531 5.92796 97.1717 5.65258 97.1139 5.58899C97.1139 5.58899 97.1193 5.69462 97.0973 5.90267L99.2504 8.9242C99.2987 8.82167 99.4323 8.73708 99.5587 8.63992ZM98.8768 7.61691C99.0997 8.28111 99.462 8.3499 99.7322 8.50793L102.26 2.66431L102.292 2.66338L99.9625 8.69292C100.223 8.92482 100.569 9.15556 101.073 9.02636C103.157 8.59162 103.537 5.19897 102.323 2.42673C101.017 3.37908 100.035 3.90067 99.4121 4.88685C98.9281 5.65388 98.5663 6.7248 98.8768 7.61691Z" fill="#62CDB9"/>
<path d="M74.7329 51.3099V47.8597H76.946V48.3969H75.3638V49.2201H76.7192V49.7573H75.3638V50.7727H76.946V51.3099H74.7329ZM78.097 51.3099L77.1802 48.8652H77.8506L78.4815 50.7431L79.1074 48.8652H79.7729L78.8561 51.3099H78.097ZM81.0396 51.3691C80.7833 51.3691 80.5615 51.3132 80.3742 51.2015C80.1902 51.0898 80.0472 50.937 79.9454 50.7431C79.8435 50.5492 79.7926 50.3307 79.7926 50.0876C79.7926 49.828 79.8451 49.6029 79.9503 49.4123C80.0554 49.2217 80.2017 49.0738 80.389 48.9687C80.5763 48.8603 80.7931 48.806 81.0396 48.806C81.2828 48.806 81.4947 48.8586 81.6754 48.9638C81.8594 49.0689 82.0024 49.2135 82.1042 49.3975C82.2094 49.5815 82.262 49.7935 82.262 50.0333C82.262 50.0761 82.2603 50.1188 82.257 50.1615C82.2538 50.2009 82.2488 50.2387 82.2423 50.2749H80.4284C80.4383 50.3899 80.4678 50.4917 80.5171 50.5805C80.5697 50.6659 80.6387 50.7333 80.7241 50.7825C80.8129 50.8285 80.9131 50.8516 81.0248 50.8516C81.1398 50.8516 81.2384 50.8269 81.3205 50.7776C81.406 50.7283 81.4733 50.6527 81.5226 50.5509H82.1979C82.1519 50.6955 82.078 50.8302 81.9761 50.9551C81.8742 51.0799 81.7444 51.1801 81.5867 51.2557C81.4323 51.3313 81.2499 51.3691 81.0396 51.3691ZM80.4333 49.8559H81.6114C81.6081 49.6916 81.5473 49.5618 81.429 49.4665C81.314 49.3712 81.1776 49.3236 81.0199 49.3236C80.8852 49.3236 80.7603 49.3663 80.6453 49.4517C80.5303 49.5339 80.4596 49.6686 80.4333 49.8559ZM82.5958 51.3099V48.8652H83.2218V49.2299C83.3072 49.0919 83.4157 48.9868 83.5471 48.9145C83.6786 48.8422 83.8248 48.806 83.9858 48.806V49.4665H83.8182C83.6178 49.4665 83.4683 49.5142 83.3697 49.6095C83.2711 49.7047 83.2218 49.8641 83.2218 50.0876V51.3099H82.5958ZM84.5073 52.3943L85.0445 51.1966L84.0538 48.8652H84.7586L85.3896 50.5312L86.0352 48.8652H86.7007L85.1727 52.3943H84.5073ZM88.1479 51.3099V47.8597H89.3259C89.7367 47.8597 90.0719 47.932 90.3315 48.0765C90.5943 48.2211 90.7866 48.4232 90.9081 48.6828C91.033 48.9424 91.0954 49.2431 91.0954 49.5848C91.0954 49.9528 91.0264 50.2666 90.8884 50.5262C90.7537 50.7825 90.5549 50.9781 90.292 51.1128C90.0291 51.2442 89.7071 51.3099 89.3259 51.3099H88.1479ZM88.7788 50.7678H89.2964C89.5888 50.7678 89.8188 50.7201 89.9864 50.6248C90.154 50.5295 90.2723 50.3932 90.3413 50.2157C90.4136 50.0383 90.4497 49.828 90.4497 49.5848C90.4497 49.1741 90.3545 48.8734 90.1639 48.6828C89.9766 48.4922 89.6874 48.3969 89.2964 48.3969H88.7788V50.7678ZM92.6881 51.3691C92.4318 51.3691 92.21 51.3132 92.0227 51.2015C91.8387 51.0898 91.6957 50.937 91.5939 50.7431C91.492 50.5492 91.4411 50.3307 91.4411 50.0876C91.4411 49.828 91.4937 49.6029 91.5988 49.4123C91.704 49.2217 91.8502 49.0738 92.0375 48.9687C92.2248 48.8603 92.4417 48.806 92.6881 48.806C92.9313 48.806 93.1432 48.8586 93.3239 48.9638C93.508 49.0689 93.6509 49.2135 93.7528 49.3975C93.8579 49.5815 93.9105 49.7935 93.9105 50.0333C93.9105 50.0761 93.9089 50.1188 93.9056 50.1615C93.9023 50.2009 93.8974 50.2387 93.8908 50.2749H92.0769C92.0868 50.3899 92.1164 50.4917 92.1656 50.5805C92.2182 50.6659 92.2872 50.7333 92.3727 50.7825C92.4614 50.8285 92.5616 50.8516 92.6733 50.8516C92.7883 50.8516 92.8869 50.8269 92.9691 50.7776C93.0545 50.7283 93.1219 50.6527 93.1712 50.5509H93.8464C93.8004 50.6955 93.7265 50.8302 93.6246 50.9551C93.5227 51.0799 93.393 51.1801 93.2352 51.2557C93.0808 51.3313 92.8984 51.3691 92.6881 51.3691ZM92.0819 49.8559H93.2599C93.2566 49.6916 93.1958 49.5618 93.0775 49.4665C92.9625 49.3712 92.8261 49.3236 92.6684 49.3236C92.5337 49.3236 92.4088 49.3663 92.2938 49.4517C92.1788 49.5339 92.1081 49.6686 92.0819 49.8559ZM94.9936 51.3691C94.849 51.3691 94.7142 51.3395 94.5894 51.2804C94.4645 51.2212 94.3626 51.1374 94.2838 51.029C94.2082 50.9173 94.1704 50.7858 94.1704 50.6347C94.1704 50.4539 94.2148 50.3061 94.3035 50.1911C94.3922 50.0761 94.5138 49.9906 94.6682 49.9348C94.826 49.8789 95.0018 49.851 95.1956 49.851H95.7773C95.7773 49.7392 95.7592 49.6456 95.723 49.57C95.6902 49.4944 95.6392 49.4369 95.5702 49.3975C95.5045 49.3548 95.4224 49.3334 95.3238 49.3334C95.2088 49.3334 95.1053 49.3597 95.0133 49.4123C94.9246 49.4616 94.8703 49.5454 94.8506 49.6637H94.2197C94.2361 49.4862 94.2969 49.3334 94.4021 49.2053C94.5072 49.0771 94.642 48.9785 94.8063 48.9095C94.9706 48.8405 95.1464 48.806 95.3337 48.806C95.5637 48.806 95.7575 48.8487 95.9153 48.9342C96.0763 49.0196 96.1995 49.1412 96.2849 49.2989C96.3704 49.4534 96.4131 49.6374 96.4131 49.851V50.5952C96.4197 50.6675 96.446 50.7168 96.492 50.7431C96.538 50.7694 96.5988 50.7825 96.6743 50.7825V51.3099C96.5199 51.3099 96.3901 51.2952 96.2849 51.2656C96.1831 51.236 96.0993 51.1933 96.0336 51.1374C95.9678 51.0783 95.912 51.0043 95.866 50.9156C95.7904 51.0438 95.6721 51.1522 95.5111 51.2409C95.3534 51.3264 95.1809 51.3691 94.9936 51.3691ZM95.1759 50.8614C95.2844 50.8614 95.3829 50.8368 95.4717 50.7875C95.5637 50.7382 95.6376 50.6692 95.6935 50.5805C95.7493 50.4917 95.7773 50.3899 95.7773 50.2749V50.2551H95.2351C95.1628 50.2551 95.0938 50.2666 95.0281 50.2896C94.9623 50.3094 94.9098 50.3422 94.8703 50.3882C94.8309 50.4309 94.8112 50.4901 94.8112 50.5657C94.8112 50.6675 94.8457 50.7431 94.9147 50.7924C94.987 50.8384 95.0741 50.8614 95.1759 50.8614ZM96.9784 51.3099V47.8597H97.6093V51.3099H96.9784ZM99.3059 51.8028V47.7611H99.9368V51.8028H99.3059ZM101.476 51.3099L102.738 47.8597H103.448L104.709 51.3099H104.039L103.768 50.5262H102.412L102.136 51.3099H101.476ZM102.59 50.0186H103.59L103.088 48.5842L102.59 50.0186ZM107.362 51.3691C107.122 51.3691 106.904 51.328 106.706 51.2459C106.512 51.1637 106.358 51.0421 106.243 50.8811C106.128 50.7168 106.067 50.5131 106.061 50.2699H106.726C106.733 50.4309 106.79 50.5657 106.899 50.6741C107.01 50.7825 107.163 50.8368 107.357 50.8368C107.525 50.8368 107.658 50.7973 107.756 50.7185C107.855 50.6396 107.904 50.5328 107.904 50.3981C107.904 50.3291 107.893 50.2683 107.87 50.2157C107.85 50.1631 107.81 50.1138 107.751 50.0678C107.692 50.0218 107.608 49.9775 107.5 49.9348C107.395 49.8888 107.255 49.8378 107.081 49.782C106.854 49.7064 106.672 49.6193 106.534 49.5207C106.396 49.4222 106.296 49.3121 106.233 49.1905C106.174 49.0656 106.144 48.9309 106.144 48.7863C106.144 48.5694 106.195 48.3887 106.297 48.2441C106.402 48.0963 106.542 47.9862 106.716 47.9139C106.894 47.8383 107.089 47.8005 107.303 47.8005C107.52 47.8005 107.715 47.8383 107.889 47.9139C108.067 47.9895 108.21 48.1012 108.318 48.2491C108.427 48.3969 108.482 48.5793 108.486 48.7962H107.81C107.807 48.6713 107.758 48.5629 107.663 48.4709C107.571 48.3789 107.442 48.3329 107.278 48.3329C107.147 48.3329 107.035 48.3674 106.943 48.4364C106.851 48.5054 106.805 48.6072 106.805 48.742C106.805 48.8405 106.841 48.9243 106.913 48.9933C106.989 49.0623 107.089 49.1231 107.214 49.1757C107.342 49.225 107.483 49.2776 107.638 49.3334C107.723 49.363 107.819 49.4008 107.924 49.4468C108.032 49.4928 108.136 49.5552 108.234 49.6341C108.333 49.7097 108.413 49.8066 108.476 49.9249C108.542 50.0399 108.574 50.1829 108.574 50.3537C108.574 50.564 108.52 50.7448 108.412 50.8959C108.307 51.0471 108.162 51.1637 107.978 51.2459C107.797 51.328 107.592 51.3691 107.362 51.3691ZM108.993 51.3099V48.8652H109.619V49.1461C109.701 49.0311 109.806 48.9457 109.934 48.8898C110.062 48.834 110.197 48.806 110.338 48.806C110.522 48.806 110.693 48.8455 110.851 48.9243C111.012 48.9999 111.137 49.1198 111.226 49.2841C111.308 49.133 111.421 49.0163 111.566 48.9342C111.714 48.8487 111.875 48.806 112.049 48.806C112.236 48.806 112.405 48.8455 112.556 48.9243C112.711 48.9999 112.832 49.1166 112.921 49.2743C113.01 49.432 113.054 49.6292 113.054 49.8658V51.3099H112.428V49.9545C112.428 49.7705 112.384 49.6242 112.295 49.5158C112.206 49.4074 112.07 49.3531 111.886 49.3531C111.705 49.3531 111.569 49.4074 111.477 49.5158C111.385 49.6242 111.339 49.7705 111.339 49.9545V51.3099H110.713V49.9545C110.713 49.7672 110.665 49.621 110.57 49.5158C110.478 49.4074 110.345 49.3531 110.171 49.3531C110.023 49.3531 109.893 49.4008 109.781 49.4961C109.673 49.5881 109.619 49.7409 109.619 49.9545V51.3099H108.993ZM114.209 51.3691C114.064 51.3691 113.929 51.3395 113.805 51.2804C113.68 51.2212 113.578 51.1374 113.499 51.029C113.423 50.9173 113.386 50.7858 113.386 50.6347C113.386 50.4539 113.43 50.3061 113.519 50.1911C113.607 50.0761 113.729 49.9906 113.883 49.9348C114.041 49.8789 114.217 49.851 114.411 49.851H114.993C114.993 49.7392 114.974 49.6456 114.938 49.57C114.905 49.4944 114.854 49.4369 114.785 49.3975C114.72 49.3548 114.638 49.3334 114.539 49.3334C114.424 49.3334 114.321 49.3597 114.229 49.4123C114.14 49.4616 114.086 49.5454 114.066 49.6637H113.435C113.451 49.4862 113.512 49.3334 113.617 49.2053C113.722 49.0771 113.857 48.9785 114.022 48.9095C114.186 48.8405 114.362 48.806 114.549 48.806C114.779 48.806 114.973 48.8487 115.131 48.9342C115.292 49.0196 115.415 49.1412 115.5 49.2989C115.586 49.4534 115.628 49.6374 115.628 49.851V50.5952C115.635 50.6675 115.661 50.7168 115.707 50.7431C115.753 50.7694 115.814 50.7825 115.89 50.7825V51.3099C115.735 51.3099 115.605 51.2952 115.5 51.2656C115.398 51.236 115.315 51.1933 115.249 51.1374C115.183 51.0783 115.127 51.0043 115.081 50.9156C115.006 51.0438 114.887 51.1522 114.726 51.2409C114.569 51.3264 114.396 51.3691 114.209 51.3691ZM114.391 50.8614C114.5 50.8614 114.598 50.8368 114.687 50.7875C114.779 50.7382 114.853 50.6692 114.909 50.5805C114.965 50.4917 114.993 50.3899 114.993 50.2749V50.2551H114.45C114.378 50.2551 114.309 50.2666 114.243 50.2896C114.178 50.3094 114.125 50.3422 114.086 50.3882C114.046 50.4309 114.026 50.4901 114.026 50.5657C114.026 50.6675 114.061 50.7431 114.13 50.7924C114.202 50.8384 114.289 50.8614 114.391 50.8614ZM116.194 51.3099V48.8652H116.82V49.2299C116.905 49.0919 117.013 48.9868 117.145 48.9145C117.276 48.8422 117.423 48.806 117.584 48.806V49.4665H117.416C117.216 49.4665 117.066 49.5142 116.967 49.6095C116.869 49.7047 116.82 49.8641 116.82 50.0876V51.3099H116.194ZM118.888 51.3099C118.625 51.3099 118.426 51.2459 118.291 51.1177C118.16 50.9896 118.094 50.7973 118.094 50.541V49.3926H117.779V48.8652H118.094V48.2688H118.725V48.8652H119.282V49.3926H118.725V50.546C118.725 50.638 118.75 50.7004 118.799 50.7333C118.848 50.7661 118.912 50.7825 118.991 50.7825H119.282V51.3099H118.888ZM120.956 51.3099V47.8597H122.134C122.545 47.8597 122.88 47.932 123.14 48.0765C123.403 48.2211 123.595 48.4232 123.717 48.6828C123.841 48.9424 123.904 49.2431 123.904 49.5848C123.904 49.9528 123.835 50.2666 123.697 50.5262C123.562 50.7825 123.363 50.9781 123.1 51.1128C122.838 51.2442 122.516 51.3099 122.134 51.3099H120.956ZM121.587 50.7678H122.105C122.397 50.7678 122.627 50.7201 122.795 50.6248C122.962 50.5295 123.081 50.3932 123.15 50.2157C123.222 50.0383 123.258 49.828 123.258 49.5848C123.258 49.1741 123.163 48.8734 122.972 48.6828C122.785 48.4922 122.496 48.3969 122.105 48.3969H121.587V50.7678ZM125.497 51.3691C125.24 51.3691 125.018 51.3132 124.831 51.2015C124.647 51.0898 124.504 50.937 124.402 50.7431C124.3 50.5492 124.249 50.3307 124.249 50.0876C124.249 49.828 124.302 49.6029 124.407 49.4123C124.512 49.2217 124.659 49.0738 124.846 48.9687C125.033 48.8603 125.25 48.806 125.497 48.806C125.74 48.806 125.952 48.8586 126.132 48.9638C126.316 49.0689 126.459 49.2135 126.561 49.3975C126.666 49.5815 126.719 49.7935 126.719 50.0333C126.719 50.0761 126.717 50.1188 126.714 50.1615C126.711 50.2009 126.706 50.2387 126.699 50.2749H124.885C124.895 50.3899 124.925 50.4917 124.974 50.5805C125.027 50.6659 125.096 50.7333 125.181 50.7825C125.27 50.8285 125.37 50.8516 125.482 50.8516C125.597 50.8516 125.695 50.8269 125.777 50.7776C125.863 50.7283 125.93 50.6527 125.98 50.5509H126.655C126.609 50.6955 126.535 50.8302 126.433 50.9551C126.331 51.0799 126.201 51.1801 126.044 51.2557C125.889 51.3313 125.707 51.3691 125.497 51.3691ZM124.89 49.8559H126.068C126.065 49.6916 126.004 49.5618 125.886 49.4665C125.771 49.3712 125.635 49.3236 125.477 49.3236C125.342 49.3236 125.217 49.3663 125.102 49.4517C124.987 49.5339 124.917 49.6686 124.89 49.8559ZM127.802 51.3691C127.657 51.3691 127.523 51.3395 127.398 51.2804C127.273 51.2212 127.171 51.1374 127.092 51.029C127.017 50.9173 126.979 50.7858 126.979 50.6347C126.979 50.4539 127.023 50.3061 127.112 50.1911C127.201 50.0761 127.322 49.9906 127.477 49.9348C127.634 49.8789 127.81 49.851 128.004 49.851H128.586C128.586 49.7392 128.568 49.6456 128.531 49.57C128.499 49.4944 128.448 49.4369 128.379 49.3975C128.313 49.3548 128.231 49.3334 128.132 49.3334C128.017 49.3334 127.914 49.3597 127.822 49.4123C127.733 49.4616 127.679 49.5454 127.659 49.6637H127.028C127.045 49.4862 127.105 49.3334 127.21 49.2053C127.316 49.0771 127.45 48.9785 127.615 48.9095C127.779 48.8405 127.955 48.806 128.142 48.806C128.372 48.806 128.566 48.8487 128.724 48.9342C128.885 49.0196 129.008 49.1412 129.093 49.2989C129.179 49.4534 129.221 49.6374 129.221 49.851V50.5952C129.228 50.6675 129.254 50.7168 129.3 50.7431C129.346 50.7694 129.407 50.7825 129.483 50.7825V51.3099C129.328 51.3099 129.198 51.2952 129.093 51.2656C128.991 51.236 128.908 51.1933 128.842 51.1374C128.776 51.0783 128.72 51.0043 128.674 50.9156C128.599 51.0438 128.481 51.1522 128.319 51.2409C128.162 51.3264 127.989 51.3691 127.802 51.3691ZM127.984 50.8614C128.093 50.8614 128.191 50.8368 128.28 50.7875C128.372 50.7382 128.446 50.6692 128.502 50.5805C128.558 50.4917 128.586 50.3899 128.586 50.2749V50.2551H128.043C127.971 50.2551 127.902 50.2666 127.836 50.2896C127.771 50.3094 127.718 50.3422 127.679 50.3882C127.639 50.4309 127.62 50.4901 127.62 50.5657C127.62 50.6675 127.654 50.7431 127.723 50.7924C127.795 50.8384 127.882 50.8614 127.984 50.8614ZM129.787 51.3099V47.8597H130.418V51.3099H129.787Z" fill="#1A2550"/>
</svg>
